<svg width="390" height="220" viewBox="0 0 390 220" fill="none" xmlns="http://www.w3.org/2000/svg">
<path fill-rule="evenodd" clip-rule="evenodd" d="M10 220C4.47715 220 0 215.523 0 210V10C0 4.47716 4.47715 0 10 0H380C385.523 0 390 4.47715 390 10V210C390 215.523 385.523 220 380 220H10Z" fill="#121212"/>
<mask id="mask0_12_126" style="mask-type:alpha" maskUnits="userSpaceOnUse" x="0" y="0" width="390" height="221">
<path fill-rule="evenodd" clip-rule="evenodd" d="M10 220C4.47715 220 0 215.523 0 210V10.0005C0 4.47764 4.47715 0.000484141 10 0.000484141H380C385.523 0.000484141 390 4.47764 390 10.0005V210C390 215.523 385.523 220 380 220H10Z" fill="#121212"/>
</mask>
<g mask="url(#mask0_12_126)">
<path opacity="0.42" fill-rule="evenodd" clip-rule="evenodd" d="M215 -33.6554C215 -121.037 293.574 -191.874 390.5 -191.874C487.426 -191.874 566 -121.037 566 -33.6554C566 53.7262 487.426 124.563 390.5 124.563C293.574 124.563 215 53.7262 215 -33.6554Z" fill="url(#paint0_radial_12_126)"/>
<path opacity="0.42" fill-rule="evenodd" clip-rule="evenodd" d="M-250 101.463C-250 14.3599 -171.426 -56.2509 -74.5 -56.2509C22.426 -56.2509 101 14.3599 101 101.463C101 188.566 22.426 259.177 -74.5 259.177C-171.426 259.177 -250 188.566 -250 101.463Z" fill="url(#paint1_radial_12_126)"/>
</g>
<path fill-rule="evenodd" clip-rule="evenodd" d="M212.001 40.9911C212.001 42.8785 210.432 44.3717 209.932 46.0343C209.433 47.6969 209.751 49.956 208.752 51.3778C207.753 52.8003 205.614 53.1536 204.217 54.1916C202.821 55.2288 201.895 57.2502 200.263 57.8178C198.631 58.3847 196.816 57.3313 195 57.3313C193.185 57.3313 191.373 58.3774 189.739 57.854C188.104 57.3313 187.144 55.2657 185.784 54.2277C184.425 53.1897 182.301 52.8686 181.249 51.4147C180.198 49.9608 180.614 47.7884 180.07 46.0704C179.526 44.3533 178.001 42.8841 178.001 40.9911C178.001 39.098 179.57 37.592 180.07 35.9294C180.569 34.2668 180.25 32.0077 181.249 30.5851C182.248 29.1634 184.388 28.8286 185.784 27.7721C187.181 26.7157 188.107 24.7319 189.739 24.1644C191.37 23.5967 193.241 24.687 195 24.687C196.761 24.687 198.628 23.6409 200.263 24.1644C201.897 24.687 202.857 26.7526 204.217 27.7721C205.577 28.7917 207.737 29.1313 208.752 30.5851C209.767 32.039 209.388 34.2114 209.932 35.9294C210.476 37.6466 212.001 39.1085 212.001 40.9911Z" stroke="#6AFF9F"/>
<path d="M188.464 40.2114L193.367 44.9195L201.537 37.0727" stroke="#6AFF9F" stroke-linecap="round" stroke-linejoin="round"/>
<defs>
<radialGradient id="paint0_radial_12_126" cx="0" cy="0" r="1" gradientUnits="userSpaceOnUse" gradientTransform="translate(390.5 -33.65) rotate(90) scale(158.22 194.668)">
<stop stop-color="#6AFF9F"/>
<stop offset="1" stop-color="#6AFF9F" stop-opacity="0.01"/>
</radialGradient>
<radialGradient id="paint1_radial_12_126" cx="0" cy="0" r="1" gradientUnits="userSpaceOnUse" gradientTransform="translate(-74.5 101.46) rotate(90) scale(157.72 195.288)">
<stop stop-color="#6AFF9F"/>
<stop offset="1" stop-color="#6AFF9F" stop-opacity="0.01"/>
</radialGradient>
</defs>
</svg>
