<svg width="15" height="15" viewBox="0 0 15 15" fill="none" xmlns="http://www.w3.org/2000/svg">
<path fill-rule="evenodd" clip-rule="evenodd" d="M13.6687 10.8605C13.6687 12.4092 12.4088 13.6691 10.8601 13.6691H4.13892C2.59021 13.6691 1.33033 12.4092 1.33033 10.8605V4.13926C1.33033 2.59072 2.59022 1.33069 4.13892 1.33069H10.86C12.4087 1.33069 13.6687 2.59072 13.6687 4.13926V10.8605H13.6687ZM10.86 -0.00012207H4.13891C1.85647 -0.00012207 -0.000488281 1.85683 -0.000488281 4.13927V10.8605C-0.000488281 13.1429 1.85647 14.9999 4.13891 14.9999H10.86C13.1425 14.9999 14.9995 13.1429 14.9995 10.8605V4.13927C14.9997 1.85683 13.1426 -0.00012207 10.86 -0.00012207Z" fill="#717171"/>
<path fill-rule="evenodd" clip-rule="evenodd" d="M7.49937 9.99583C6.123 9.99583 5.00318 8.87633 5.00318 7.50005C5.00318 6.12362 6.12287 5.00395 7.49937 5.00395C8.8758 5.00395 9.99549 6.12362 9.99549 7.50005C9.99549 8.87633 8.87565 9.99583 7.49937 9.99583ZM7.49937 3.69318C5.40019 3.69318 3.69238 5.40092 3.69238 7.50004C3.69238 9.59916 5.40019 11.3067 7.49937 11.3067C9.59852 11.3067 11.3063 9.59916 11.3063 7.50004C11.3063 5.40092 9.59852 3.69318 7.49937 3.69318Z" fill="#717171"/>
<path fill-rule="evenodd" clip-rule="evenodd" d="M11.514 2.501C11.2531 2.501 10.9968 2.60664 10.8125 2.79171C10.6273 2.97581 10.5209 3.23226 10.5209 3.49418C10.5209 3.75514 10.6275 4.01143 10.8125 4.19666C10.9966 4.38076 11.2531 4.48736 11.514 4.48736C11.7759 4.48736 12.0314 4.38076 12.2165 4.19666C12.4015 4.01143 12.5071 3.75514 12.5071 3.49418C12.5071 3.23226 12.4015 2.97581 12.2165 2.79171C12.0322 2.60664 11.7759 2.501 11.514 2.501Z" fill="#717171"/>
</svg>
