<svg width="20" height="22" viewBox="0 0 20 22" fill="none" xmlns="http://www.w3.org/2000/svg">
<path fill-rule="evenodd" clip-rule="evenodd" d="M18.8533 4.52539C16.889 4.39893 15.2996 2.91064 15.0325 1.00098H12.4491V1H4.96968C4.70259 2.90918 3.11228 4.39746 1.14893 4.52441C0.692394 8.19629 0.716313 16.8457 9.98915 21C19.262 16.8457 19.3093 8.19727 18.8533 4.52539Z" fill="#6AFF9F" stroke="#6AFF9F" stroke-linecap="round" stroke-linejoin="round"/>
<path fill-rule="evenodd" clip-rule="evenodd" d="M7.00002 15.001C6.44774 15.001 6.00002 14.5533 6.00002 14.001V8.46993C6.00002 7.91765 6.44774 7.46993 7.00002 7.46993H13C13.5523 7.46993 14 7.91765 14 8.46993V14.001C14 14.5533 13.5523 15.001 13 15.001H7.00002Z" fill="#6AFF9F" stroke="#121212" stroke-linecap="round" stroke-linejoin="round"/>
<path d="M7.48637 7.4578V6.30552C7.48637 5.03276 8.6118 4.00098 10.0001 4.00098V4.00098C11.3884 4.00098 12.5138 5.03276 12.5138 6.30552V7.4578" stroke="#121212" stroke-linecap="round" stroke-linejoin="round"/>
<path d="M8.11232 11.3188L9.37085 12.5706L11.8879 10.0669" stroke="#121212" stroke-linecap="round" stroke-linejoin="round"/>
</svg>
