<svg width="91" height="36" viewBox="0 0 91 36" fill="none" xmlns="http://www.w3.org/2000/svg">
<path fill-rule="evenodd" clip-rule="evenodd" d="M35.5384 14.4789L45.0498 25.8098C45.3702 26.1932 45.8059 26.4208 46.2671 26.4957V19.9092L36.7603 9.03804C36.4339 8.66514 35.9966 8.44499 35.5384 8.3791V14.4789Z" fill="white" stroke="white" stroke-width="4" stroke-linecap="round" stroke-linejoin="round"/>
<path fill-rule="evenodd" clip-rule="evenodd" d="M65.4571 9.29976H65.4556C64.0713 8.50423 62.5222 8.10123 60.8518 8.10123C59.1783 8.10123 57.6367 8.50573 56.2719 9.30126C54.9085 10.0983 53.8149 11.2039 53.0194 12.5852C52.2238 13.9695 51.8193 15.5291 51.8193 17.2221V31.8037C51.8193 32.4494 52.0351 32.9843 52.4576 33.3932C52.877 33.7962 53.3999 34 54.0171 34C54.6584 34 55.1887 33.7932 55.6007 33.3857C56.0067 32.9767 56.2135 32.4449 56.2135 31.8037V24.4492C56.7228 24.8702 57.2831 25.2268 57.8884 25.5189C58.9881 26.0463 60.1896 26.3129 61.46 26.3129C63.0391 26.3129 64.4908 25.9114 65.7777 25.1204C67.0602 24.3309 68.0834 23.2267 68.8145 21.8379C69.5441 20.4596 69.9127 18.9075 69.9127 17.2221C69.9127 15.5321 69.5142 13.9725 68.7306 12.5897C67.9441 11.2039 66.8429 10.0968 65.4572 9.29977M60.8518 12.1283C61.7567 12.1283 62.5522 12.3425 63.2803 12.783C64.0009 13.219 64.5807 13.8317 65.0017 14.6018C65.4257 15.3763 65.6399 16.2587 65.6399 17.2221C65.6399 18.1854 65.4257 19.0618 65.0032 19.8259C64.5762 20.5974 64.0129 21.1877 63.2803 21.6312C62.5522 22.0716 61.7567 22.2859 60.8518 22.2859C59.9439 22.2859 59.1499 22.0716 58.4217 21.6312C57.6891 21.1892 57.1318 20.6004 56.7168 19.8304C56.3033 19.0663 56.0921 18.1884 56.0921 17.2221C56.0921 16.2557 56.3033 15.3718 56.7183 14.5958C57.1333 13.8182 57.6906 13.225 58.4217 12.783C59.1499 12.3425 59.9439 12.1283 60.8518 12.1283Z" fill="white"/>
<path d="M65.4571 11.2998C66.5617 11.2998 67.4571 10.4043 67.4571 9.29976C67.4571 8.19519 66.5617 7.29976 65.4571 7.29976V11.2998ZM65.4556 9.29976L64.4591 11.0338C64.7623 11.2081 65.1059 11.2998 65.4556 11.2998V9.29976ZM56.2719 9.30126L55.2647 7.57336L55.2625 7.57466L56.2719 9.30126ZM53.0194 12.5852L51.2862 11.5871L51.2853 11.5887L53.0194 12.5852ZM52.4576 33.3932L51.0665 34.8302L51.072 34.8355L52.4576 33.3932ZM55.6007 33.3857L57.0072 34.8077C57.0115 34.8034 57.0158 34.7991 57.0201 34.7947L55.6007 33.3857ZM56.2135 24.4492L57.4876 22.9076C56.8905 22.4141 56.0622 22.3098 55.3615 22.6398C54.6607 22.9697 54.2135 23.6746 54.2135 24.4492H56.2135ZM57.8884 25.5189L57.019 27.3201L57.0236 27.3223L57.8884 25.5189ZM65.7777 25.1204L66.8251 26.8243L66.8263 26.8235L65.7777 25.1204ZM68.8145 21.8379L67.0469 20.9022L67.0448 20.9063L68.8145 21.8379ZM68.7306 12.5897L70.4707 11.6038L70.47 11.6025L68.7306 12.5897ZM66.4543 7.56607C65.4968 7.01537 64.2742 7.34514 63.7235 8.30264C63.1728 9.26014 63.5025 10.4828 64.46 11.0335L66.4543 7.56607ZM60.8518 10.1283C59.7472 10.1283 58.8518 11.0237 58.8518 12.1283C58.8518 13.2329 59.7472 14.1283 60.8518 14.1283V10.1283ZM63.2803 12.783L64.3156 11.0718L64.3155 11.0718L63.2803 12.783ZM65.0017 14.6018L63.2468 15.5611L63.2473 15.5621L65.0017 14.6018ZM65.0032 19.8259L66.7531 20.7943L66.7534 20.7937L65.0032 19.8259ZM63.2803 21.6312L64.3155 23.3424L64.316 23.3421L63.2803 21.6312ZM58.4217 21.6312L59.4569 19.9199L59.4548 19.9187L58.4217 21.6312ZM56.7168 19.8304L58.4774 18.8815L58.4758 18.8785L56.7168 19.8304ZM56.7183 14.5958L58.482 15.5389L58.4828 15.5375L56.7183 14.5958ZM58.4217 12.783L59.4564 14.4946L59.4569 14.4943L58.4217 12.783ZM60.8518 14.1283C61.9563 14.1283 62.8518 13.2329 62.8518 12.1283C62.8518 11.0237 61.9563 10.1283 60.8518 10.1283V14.1283ZM65.4571 7.29976H65.4556V11.2998H65.4571V7.29976ZM66.4522 7.56571C64.7501 6.58755 62.8547 6.10123 60.8518 6.10123V10.1012C62.1897 10.1012 63.3926 10.4209 64.4591 11.0338L66.4522 7.56571ZM60.8518 6.10123C58.8455 6.10123 56.953 6.58931 55.2647 7.57336L57.279 11.0292C58.3204 10.4222 59.5111 10.1012 60.8518 10.1012V6.10123ZM55.2625 7.57466C53.5945 8.54977 52.2531 9.90826 51.2862 11.5871L54.7525 13.5834C55.3767 12.4996 56.2226 11.6468 57.2813 11.0279L55.2625 7.57466ZM51.2853 11.5887C50.3055 13.2937 49.8193 15.2002 49.8193 17.2221H53.8193C53.8193 15.8581 54.1422 14.6454 54.7534 13.5817L51.2853 11.5887ZM49.8193 17.2221V31.8037H53.8193V17.2221H49.8193ZM49.8193 31.8037C49.8193 32.936 50.2169 34.0078 51.0665 34.8302L53.8486 31.9563C53.8436 31.9514 53.8405 31.9479 53.8388 31.9458C53.8371 31.9438 53.8363 31.9428 53.8363 31.9427C53.8362 31.9425 53.8363 31.9427 53.8364 31.9429C53.8365 31.9431 53.8363 31.9427 53.8357 31.9413C53.8351 31.9398 53.8193 31.9017 53.8193 31.8037H49.8193ZM51.072 34.8355C51.8875 35.619 52.9169 36 54.0171 36V32C53.9315 32 53.8953 31.9866 53.8886 31.9839C53.8838 31.9821 53.8705 31.9773 53.8432 31.951L51.072 34.8355ZM54.0171 36C55.1274 36 56.1817 35.6241 57.0072 34.8077L54.1943 31.9638C54.1842 31.9737 54.1787 31.9774 54.1777 31.978C54.1767 31.9787 54.1752 31.9797 54.1708 31.9814C54.1645 31.9838 54.1209 32 54.0171 32V36ZM57.0201 34.7947C57.8396 33.9692 58.2135 32.9106 58.2135 31.8037H54.2135C54.2135 31.9077 54.1972 31.9522 54.1946 31.9589C54.1928 31.9633 54.192 31.9644 54.192 31.9645C54.1919 31.9646 54.1893 31.9687 54.1813 31.9768L57.0201 34.7947ZM58.2135 31.8037V24.4492H54.2135V31.8037H58.2135ZM54.9394 25.9909C55.5773 26.5181 56.2744 26.9606 57.019 27.3201L58.7578 23.7177C58.2919 23.4929 57.8684 23.2223 57.4876 22.9076L54.9394 25.9909ZM57.0236 27.3223C58.4052 27.9848 59.9038 28.3129 61.46 28.3129V24.3129C60.4754 24.3129 59.571 24.1077 58.7532 23.7155L57.0236 27.3223ZM61.46 28.3129C63.3921 28.3129 65.2091 27.8175 66.8251 26.8243L64.7304 23.4165C63.7725 24.0053 62.6861 24.3129 61.46 24.3129V28.3129ZM66.8263 26.8235C68.4256 25.8389 69.6927 24.4631 70.5843 22.7696L67.0448 20.9063C66.4741 21.9903 65.6948 22.8228 64.7292 23.4173L66.8263 26.8235ZM70.5821 22.7736C71.4769 21.0833 71.9127 19.2057 71.9127 17.2221H67.9127C67.9127 18.6093 67.6114 19.8359 67.0469 20.9022L70.5821 22.7736ZM71.9127 17.2221C71.9127 15.2085 71.4351 13.3058 70.4707 11.6038L66.9906 13.5757C67.5932 14.6393 67.9127 15.8558 67.9127 17.2221H71.9127ZM70.47 11.6025C69.5068 9.90537 68.149 8.54077 66.4543 7.56607L64.46 11.0335C65.5369 11.6528 66.3815 12.5025 66.9913 13.577L70.47 11.6025ZM60.8518 14.1283C61.4163 14.1283 61.8497 14.255 62.2451 14.4942L64.3155 11.0718C63.2547 10.43 62.097 10.1283 60.8518 10.1283V14.1283ZM62.245 14.4942C62.6504 14.7395 62.9876 15.087 63.2468 15.5611L66.7566 13.6424C66.1738 12.5764 65.3514 11.6985 64.3156 11.0718L62.245 14.4942ZM63.2473 15.5621C63.495 16.0146 63.6399 16.5615 63.6399 17.2221H67.6399C67.6399 15.956 67.3563 14.738 66.756 13.6414L63.2473 15.5621ZM63.6399 17.2221C63.6399 17.8828 63.495 18.4202 63.2529 18.8581L66.7534 20.7937C67.3563 19.7034 67.6399 18.4879 67.6399 17.2221H63.6399ZM63.2533 18.8575C62.9902 19.3329 62.6692 19.6632 62.2446 19.9202L64.316 23.3421C65.3566 22.7122 66.1622 21.8619 66.7531 20.7943L63.2533 18.8575ZM62.2451 19.9199C61.8497 20.1591 61.4163 20.2859 60.8518 20.2859V24.2859C62.097 24.2859 63.2547 23.9841 64.3155 23.3424L62.2451 19.9199ZM60.8518 20.2859C60.2842 20.2859 59.8524 20.1591 59.4569 19.9199L57.3866 23.3424C58.4473 23.9841 59.6035 24.2859 60.8518 24.2859V20.2859ZM59.4548 19.9187C59.036 19.666 58.7267 19.3441 58.4774 18.8815L54.9562 20.7792C55.5369 21.8567 56.3422 22.7124 57.3886 23.3437L59.4548 19.9187ZM58.4758 18.8785C58.2367 18.4366 58.0921 17.8917 58.0921 17.2221H54.0921C54.0921 18.4851 54.37 19.696 54.9579 20.7823L58.4758 18.8785ZM58.0921 17.2221C58.0921 16.5529 58.2365 15.998 58.482 15.5389L54.9547 13.6527C54.3702 14.7457 54.0921 15.9585 54.0921 17.2221H58.0921ZM58.4828 15.5375C58.734 15.0668 59.0437 14.744 59.4564 14.4946L57.3871 11.0714C56.3375 11.7059 55.5327 12.5697 54.9539 13.6541L58.4828 15.5375ZM59.4569 14.4943C59.8524 14.255 60.2842 14.1283 60.8518 14.1283V10.1283C59.6036 10.1283 58.4473 10.43 57.3866 11.0717L59.4569 14.4943Z" fill="white"/>
<path fill-rule="evenodd" clip-rule="evenodd" d="M87.8345 12.7287C87.0584 11.3519 85.9708 10.2583 84.6029 9.48223C83.2396 8.70768 81.6815 8.31516 79.9706 8.31516C78.2402 8.31516 76.6672 8.70618 75.2933 9.48073C73.912 10.2583 72.8244 11.3534 72.0588 12.7317C71.2962 14.1026 70.9082 15.6861 70.9082 17.4375C70.9082 19.1664 71.2962 20.7394 72.0588 22.1103C72.8244 23.4916 73.9135 24.5852 75.2933 25.3628C76.6657 26.1358 78.2402 26.5268 79.9706 26.5268C81.701 26.5268 83.2711 26.1343 84.6344 25.3613C86.0007 24.5837 87.0839 23.4901 87.8525 22.1103C88.615 20.7394 89.0001 19.1649 89.0001 17.4375C89.0001 15.6861 88.609 14.1026 87.8345 12.7287M82.4351 21.8571C81.7145 22.284 80.886 22.4998 79.9706 22.4998C79.0552 22.4998 78.2252 22.284 77.5046 21.8571C76.775 21.4256 76.2192 20.8428 75.8057 20.0757C75.3907 19.3102 75.181 18.4218 75.181 17.4375C75.181 16.4487 75.3907 15.5558 75.8072 14.7797C76.2162 14.0127 76.7885 13.4104 77.5046 12.9849C78.2252 12.558 79.0552 12.3422 79.9706 12.3422C80.886 12.3422 81.7145 12.558 82.4351 12.9849C83.1602 13.4149 83.71 14.0007 84.116 14.7737C84.5235 15.5528 84.7303 16.4472 84.7303 17.4375C84.7303 18.4233 84.5235 19.3132 84.1175 20.0802C83.7115 20.8458 83.1617 21.4271 82.4351 21.8571" fill="white"/>
<path d="M86.0922 13.7108C86.6346 14.673 87.8543 15.0134 88.8165 14.471C89.7788 13.9287 90.1191 12.7089 89.5768 11.7467L86.0922 13.7108ZM84.6029 9.48223L83.615 11.2212L83.616 11.2218L84.6029 9.48223ZM75.2933 9.48073L76.2744 11.2236L76.2756 11.2229L75.2933 9.48073ZM72.0588 12.7317L73.8066 13.704L73.8072 13.7029L72.0588 12.7317ZM72.0588 22.1103L73.8081 21.1407L73.8066 21.138L72.0588 22.1103ZM75.2933 25.3628L74.3115 27.1052L74.3117 27.1053L75.2933 25.3628ZM84.6344 25.3613L85.6209 27.101L85.6236 27.0995L84.6344 25.3613ZM87.8525 22.1103L89.5997 23.0835L89.6002 23.0825L87.8525 22.1103ZM89.5767 11.7465C89.0342 10.7843 87.8144 10.4441 86.8522 10.9866C85.89 11.529 85.5498 12.7488 86.0923 13.711L89.5767 11.7465ZM83.4546 23.5777C84.4049 23.0146 84.7188 21.7878 84.1557 20.8375C83.5927 19.8873 82.3659 19.5734 81.4156 20.1364L83.4546 23.5777ZM77.5046 21.8571L78.5241 20.1364L78.5227 20.1356L77.5046 21.8571ZM75.8057 20.0757L77.5662 19.1267L77.564 19.1226L75.8057 20.0757ZM75.8072 14.7797L77.5695 15.7255L77.572 15.7207L75.8072 14.7797ZM77.5046 12.9849L76.4851 11.2643L76.4831 11.2655L77.5046 12.9849ZM82.4351 12.9849L83.4552 11.2646L83.4546 11.2643L82.4351 12.9849ZM84.116 14.7737L85.8882 13.8468L85.8867 13.8438L84.116 14.7737ZM84.1175 20.0802L85.8844 21.0173L85.8852 21.0158L84.1175 20.0802ZM81.4166 20.1358C80.466 20.6984 80.1514 21.925 80.7139 22.8756C81.2764 23.8262 82.503 24.1408 83.4536 23.5783L81.4166 20.1358ZM89.5768 11.7467C88.6238 10.0559 87.276 8.69936 85.5899 7.7427L83.616 11.2218C84.6655 11.8172 85.4931 12.6479 86.0922 13.7108L89.5768 11.7467ZM85.5909 7.74328C83.8994 6.78227 81.9954 6.31516 79.9706 6.31516V10.3152C81.3676 10.3152 82.5799 10.6331 83.615 11.2212L85.5909 7.74328ZM79.9706 6.31516C77.9317 6.31516 76.0143 6.77831 74.3111 7.73854L76.2756 11.2229C77.3201 10.634 78.5488 10.3152 79.9706 10.3152V6.31516ZM74.3123 7.73788C72.609 8.69669 71.2556 10.0589 70.3104 11.7606L73.8072 13.7029C74.3931 12.648 75.2151 11.8199 76.2744 11.2236L74.3123 7.73788ZM70.311 11.7595C69.3649 13.4602 68.9082 15.3852 68.9082 17.4375H72.9082C72.9082 15.9871 73.2275 14.7449 73.8066 13.704L70.311 11.7595ZM68.9082 17.4375C68.9082 19.472 69.367 21.3855 70.311 23.0825L73.8066 21.138C73.2255 20.0934 72.9082 18.8608 72.9082 17.4375H68.9082ZM70.3095 23.0798C71.2557 24.787 72.6116 26.1472 74.3115 27.1052L76.2752 23.6204C75.2155 23.0232 74.393 22.1961 73.8081 21.1407L70.3095 23.0798ZM74.3117 27.1053C76.0135 28.0639 77.9322 28.5268 79.9706 28.5268V24.5268C78.5482 24.5268 77.3178 24.2077 76.275 23.6202L74.3117 27.1053ZM79.9706 28.5268C82.0101 28.5268 83.9264 28.0619 85.6209 27.101L83.6479 23.6215C82.6158 24.2067 81.3919 24.5268 79.9706 24.5268V28.5268ZM85.6236 27.0995C87.3089 26.1405 88.6538 24.7817 89.5997 23.0835L86.1052 21.137C85.514 22.1984 84.6926 23.027 83.6452 23.623L85.6236 27.0995ZM89.6002 23.0825C90.5455 21.3832 91.0001 19.4677 91.0001 17.4375H87.0001C87.0001 18.862 86.6845 20.0956 86.1047 21.138L89.6002 23.0825ZM91.0001 17.4375C91.0001 15.3821 90.5389 13.4532 89.5767 11.7465L86.0923 13.711C86.6792 14.7519 87.0001 15.9901 87.0001 17.4375H91.0001ZM81.4156 20.1364C81.0325 20.3634 80.5624 20.4998 79.9706 20.4998V24.4998C81.2096 24.4998 82.3965 24.2047 83.4546 23.5777L81.4156 20.1364ZM79.9706 20.4998C79.3782 20.4998 78.9067 20.3631 78.5241 20.1364L76.4851 23.5777C77.5438 24.205 78.7323 24.4998 79.9706 24.4998V20.4998ZM78.5227 20.1356C78.1153 19.8947 77.8122 19.583 77.5662 19.1267L74.0452 21.0248C74.6262 22.1026 75.4347 22.9565 76.4866 23.5786L78.5227 20.1356ZM77.564 19.1226C77.328 18.6872 77.181 18.1344 77.181 17.4375H73.181C73.181 18.7092 73.4535 19.9331 74.0474 21.0289L77.564 19.1226ZM77.181 17.4375C77.181 16.7361 77.328 16.1754 77.5694 15.7255L74.045 13.834C73.4534 14.9362 73.181 16.1613 73.181 17.4375H77.181ZM77.572 15.7207C77.8145 15.266 78.1341 14.9373 78.5262 14.7043L76.4831 11.2655C75.4429 11.8835 74.6179 12.7594 74.0424 13.8387L77.572 15.7207ZM78.5242 14.7056C78.9067 14.4789 79.3782 14.3422 79.9706 14.3422V10.3422C78.7323 10.3422 77.5438 10.637 76.4851 11.2643L78.5242 14.7056ZM79.9706 14.3422C80.5624 14.3422 81.0325 14.4786 81.4156 14.7056L83.4546 11.2643C82.3965 10.6373 81.2096 10.3422 79.9706 10.3422V14.3422ZM81.415 14.7052C81.8088 14.9388 82.1045 15.2451 82.3454 15.7037L85.8867 13.8438C85.3155 12.7563 84.5116 11.8911 83.4552 11.2646L81.415 14.7052ZM82.3438 15.7007C82.5841 16.1602 82.7303 16.7299 82.7303 17.4375H86.7303C86.7303 16.1644 86.4629 14.9454 85.8882 13.8468L82.3438 15.7007ZM82.7303 17.4375C82.7303 18.1409 82.5841 18.7022 82.3499 19.1447L85.8852 21.0158C86.463 19.9242 86.7303 18.7057 86.7303 17.4375H82.7303ZM82.3506 19.1432C82.1119 19.5935 81.8167 19.8991 81.4166 20.1358L83.4536 23.5783C84.5067 22.9551 85.3112 22.0982 85.8844 21.0173L82.3506 19.1432Z" fill="white"/>
<path fill-rule="evenodd" clip-rule="evenodd" d="M26.4801 9.47642C25.2456 8.72734 23.7669 8.3468 22.0905 8.3468C20.3991 8.3468 18.8589 8.73932 17.5166 9.51537C16.1667 10.2944 15.0986 11.3926 14.3435 12.7844C13.5929 14.1657 13.2139 15.7417 13.2139 17.4676C13.2139 19.2025 13.6169 20.7786 14.4139 22.1509C15.2124 23.5307 16.336 24.6229 17.7578 25.3974C19.1676 26.169 20.7796 26.5585 22.5489 26.5585C23.5497 26.5585 24.6104 26.3727 25.6981 26.0072C26.7887 25.6401 27.7221 25.1517 28.4547 24.5704C28.9431 24.2049 29.1993 23.7105 29.1993 23.1427C29.1993 22.7427 29.0659 22.1554 28.4292 21.6206C28.0861 21.3149 27.6367 21.1591 27.0944 21.1591C26.5625 21.1591 26.0906 21.3179 25.6996 21.625C25.328 21.9067 24.8411 22.1509 24.2509 22.3532C23.6591 22.5524 23.0868 22.6528 22.5489 22.6528C21.1422 22.6528 19.9931 22.2723 19.0342 21.4872C18.2762 20.867 17.7683 20.1059 17.4911 19.177H28.2839C28.8607 19.177 29.3491 18.9883 29.7356 18.6167C30.1237 18.2422 30.3274 17.7508 30.3274 17.1935C30.3274 15.4961 29.9993 13.9634 29.3476 12.6391C28.6854 11.2937 27.7206 10.2285 26.4801 9.47643M26.1086 15.4541H17.5346C17.8042 14.5837 18.2552 13.878 18.8994 13.3117C19.7114 12.5986 20.7556 12.251 22.0905 12.251C23.2696 12.251 24.1909 12.5911 24.9085 13.2893C25.4913 13.8586 25.8868 14.5702 26.1086 15.4541" fill="white"/>
<path d="M25.4426 11.1863C26.3869 11.7593 27.617 11.4583 28.19 10.5139C28.763 9.56962 28.462 8.33959 27.5176 7.76658L25.4426 11.1863ZM17.5166 9.51537L18.5163 11.2476L18.5176 11.2468L17.5166 9.51537ZM14.3435 12.7844L16.1008 13.7393L16.1014 13.7381L14.3435 12.7844ZM14.4139 22.1509L16.1449 21.1491L16.1434 21.1464L14.4139 22.1509ZM17.7578 25.3974L18.718 23.643L18.7146 23.6411L17.7578 25.3974ZM25.6981 26.0072L26.3352 27.903L26.336 27.9027L25.6981 26.0072ZM28.4547 24.5704L27.2563 22.9693C27.2412 22.9805 27.2263 22.992 27.2116 23.0037L28.4547 24.5704ZM28.4292 21.6206L27.0989 23.1139C27.1133 23.1268 27.128 23.1395 27.1428 23.152L28.4292 21.6206ZM25.6996 21.625L26.9078 23.2188C26.9169 23.2119 26.926 23.205 26.9349 23.1979L25.6996 21.625ZM24.2509 22.3532L24.8891 24.2486L24.8991 24.2452L24.2509 22.3532ZM19.0342 21.4872L20.3013 19.9397L20.3007 19.9393L19.0342 21.4872ZM17.4911 19.177V17.177C16.8594 17.177 16.2649 17.4755 15.8874 17.982C15.51 18.4885 15.394 19.1436 15.5746 19.7489L17.4911 19.177ZM29.7356 18.6167L31.1216 20.0586L31.1246 20.0557L29.7356 18.6167ZM29.3476 12.6391L31.1421 11.756L31.142 11.7558L29.3476 12.6391ZM27.517 7.76619C26.5725 7.19355 25.3425 7.49503 24.7699 8.43957C24.1972 9.38411 24.4987 10.614 25.4433 11.1867L27.517 7.76619ZM26.1086 17.4541C27.2131 17.4541 28.1086 16.5587 28.1086 15.4541C28.1086 14.3495 27.2131 13.4541 26.1086 13.4541V17.4541ZM17.5346 15.4541L15.6242 14.8622C15.4361 15.4691 15.5477 16.1293 15.9246 16.6407C16.3016 17.1522 16.8992 17.4541 17.5346 17.4541V15.4541ZM18.8994 13.3117L17.5796 11.809L17.5789 11.8096L18.8994 13.3117ZM24.9085 13.2893L26.3061 11.8586L26.3032 11.8557L24.9085 13.2893ZM24.1687 15.9407C24.4374 17.0121 25.5238 17.6628 26.5952 17.394C27.6666 17.1253 28.3172 16.0389 28.0485 14.9675L24.1687 15.9407ZM27.5176 7.76658C25.9229 6.79891 24.073 6.3468 22.0905 6.3468V10.3468C23.4609 10.3468 24.5684 10.6558 25.4426 11.1863L27.5176 7.76658ZM22.0905 6.3468C20.0818 6.3468 18.1905 6.8156 16.5156 7.7839L18.5176 11.2468C19.5274 10.663 20.7164 10.3468 22.0905 10.3468V6.3468ZM16.5169 7.78316C14.8438 8.74874 13.5147 10.1179 12.5855 11.8307L16.1014 13.7381C16.6824 12.6673 17.4897 11.8401 18.5163 11.2476L16.5169 7.78316ZM12.5862 11.8295C11.6605 13.533 11.2139 15.443 11.2139 17.4676H15.2139C15.2139 16.0405 15.5253 14.7983 16.1008 13.7393L12.5862 11.8295ZM11.2139 17.4676C11.2139 19.5204 11.6934 21.4491 12.6844 23.1553L16.1434 21.1464C15.5403 20.1081 15.2139 18.8846 15.2139 17.4676H11.2139ZM12.6829 23.1527C13.6677 24.8544 15.061 26.2058 16.801 27.1537L18.7146 23.6411C17.6111 23.0399 16.7571 22.207 16.1449 21.1491L12.6829 23.1527ZM16.7976 27.1518C18.5319 28.101 20.4801 28.5585 22.5489 28.5585V24.5585C21.0791 24.5585 19.8033 24.2369 18.718 23.643L16.7976 27.1518ZM22.5489 28.5585C23.7956 28.5585 25.0719 28.3275 26.3352 27.903L25.0609 24.1114C24.1489 24.4179 23.3038 24.5585 22.5489 24.5585V28.5585ZM26.336 27.9027C27.6007 27.4771 28.7501 26.8892 29.6978 26.1372L27.2116 23.0037C26.6941 23.4143 25.9768 23.8032 25.0602 24.1116L26.336 27.9027ZM29.6531 26.1716C30.6075 25.4573 31.1993 24.3874 31.1993 23.1427H27.1993C27.1993 23.1334 27.2004 23.1139 27.2068 23.0873C27.2133 23.0605 27.2233 23.0335 27.2362 23.0088C27.2638 22.9557 27.286 22.947 27.2563 22.9693L29.6531 26.1716ZM31.1993 23.1427C31.1993 22.2474 30.8731 21.0614 29.7156 20.0891L27.1428 23.152C27.1894 23.1911 27.21 23.2169 27.2162 23.2251C27.2222 23.2332 27.2196 23.2313 27.2145 23.2196C27.2097 23.2083 27.2055 23.1946 27.2028 23.1801C27.2002 23.1662 27.1993 23.1536 27.1993 23.1427H31.1993ZM29.7596 20.1272C28.9872 19.4391 28.0358 19.1591 27.0944 19.1591V23.1591C27.1742 23.1591 27.1975 23.1705 27.1827 23.1653C27.1755 23.1628 27.1622 23.1574 27.1455 23.1477C27.1287 23.1379 27.1127 23.1262 27.0989 23.1139L29.7596 20.1272ZM27.0944 19.1591C26.143 19.1591 25.2293 19.4513 24.4642 20.0522L26.9349 23.1979C26.9519 23.1846 26.9821 23.1591 27.0944 23.1591V19.1591ZM24.4914 20.0312C24.337 20.1483 24.057 20.3054 23.6026 20.4611L24.8991 24.2452C25.6252 23.9964 26.3191 23.6651 26.9078 23.2188L24.4914 20.0312ZM23.6127 20.4577C23.1954 20.5982 22.8392 20.6528 22.5489 20.6528V24.6528C23.3343 24.6528 24.1227 24.5066 24.889 24.2486L23.6127 20.4577ZM22.5489 20.6528C21.5371 20.6528 20.8541 20.3923 20.3013 19.9397L17.7672 23.0347C19.1321 24.1522 20.7472 24.6528 22.5489 24.6528V20.6528ZM20.3007 19.9393C19.8492 19.5699 19.5695 19.1477 19.4076 18.6052L15.5746 19.7489C15.9671 21.0641 16.7031 22.164 17.7678 23.0351L20.3007 19.9393ZM17.4911 21.177H28.2839V17.177H17.4911V21.177ZM28.2839 21.177C29.3355 21.177 30.3333 20.8163 31.1216 20.0586L28.3497 17.1748C28.3442 17.1801 28.3436 17.1798 28.3478 17.1771C28.3521 17.1743 28.357 17.1719 28.3608 17.1705C28.3643 17.1691 28.3621 17.1704 28.3515 17.1723C28.3407 17.1742 28.3189 17.177 28.2839 17.177V21.177ZM31.1246 20.0557C31.9191 19.2888 32.3274 18.2709 32.3274 17.1935H28.3274C28.3274 17.2107 28.3259 17.2187 28.3258 17.219C28.3258 17.2192 28.3268 17.2144 28.3301 17.2063C28.3335 17.1981 28.3378 17.1902 28.3423 17.1838C28.3467 17.1774 28.349 17.1755 28.3466 17.1777L31.1246 20.0557ZM32.3274 17.1935C32.3274 15.2381 31.9488 13.3954 31.1421 11.756L27.5531 13.5221C28.0498 14.5315 28.3274 15.754 28.3274 17.1935H32.3274ZM31.142 11.7558C30.3178 10.0813 29.096 8.72349 27.517 7.76619L25.4433 11.1867C26.3452 11.7335 27.053 12.5061 27.5532 13.5223L31.142 11.7558ZM26.1086 13.4541H17.5346V17.4541H26.1086V13.4541ZM19.445 16.046C19.6118 15.5075 19.8677 15.1234 20.2199 14.8139L17.5789 11.8096C16.6426 12.6327 15.9967 13.6599 15.6242 14.8622L19.445 16.046ZM20.2192 14.8145C20.5864 14.4919 21.1235 14.251 22.0905 14.251V10.251C20.3878 10.251 18.8364 10.7053 17.5796 11.809L20.2192 14.8145ZM22.0905 14.251C22.8465 14.251 23.2344 14.4508 23.5139 14.7228L26.3032 11.8557C25.1475 10.7314 23.6926 10.251 22.0905 10.251V14.251ZM23.511 14.7199C23.8002 15.0025 24.0266 15.3742 24.1687 15.9407L28.0485 14.9675C27.7471 13.7662 27.1824 12.7147 26.3061 11.8586L23.511 14.7199Z" fill="white"/>
<path fill-rule="evenodd" clip-rule="evenodd" d="M35.6493 20.1869V14.478V8.37667C35.1373 8.30177 34.6028 8.41861 34.1597 8.74818L32.0636 10.3091C31.5576 10.6881 31.2566 11.2828 31.2566 11.9165L31.2372 20.1869H31.2252V24.3184C31.2252 24.9686 31.4393 25.5078 31.866 25.9198C32.2867 26.3258 32.8137 26.531 33.435 26.531C34.0803 26.531 34.6178 26.3228 35.031 25.9108C35.4398 25.5004 35.6494 24.9641 35.6494 24.3184L35.6493 20.1869Z" fill="white" stroke="white" stroke-width="4" stroke-linecap="round" stroke-linejoin="round"/>
<path fill-rule="evenodd" clip-rule="evenodd" d="M46.1452 14.6872V20.3961V26.4974C46.6556 26.5723 47.1899 26.4555 47.6329 26.1259L49.7252 24.565C50.2326 24.1875 50.532 23.5913 50.5335 22.9592L50.5529 14.6872H50.5664V10.5572C50.5664 9.90556 50.3509 9.36778 49.9228 8.95432C49.5037 8.54987 48.9784 8.34314 48.3558 8.34314C47.7107 8.34314 47.1749 8.55136 46.7618 8.96331C46.3532 9.37527 46.1452 9.91155 46.1452 10.5572L46.1452 14.6872Z" fill="white" stroke="white" stroke-width="4" stroke-linecap="round" stroke-linejoin="round"/>
<path fill-rule="evenodd" clip-rule="evenodd" d="M13.2903 23.0885H13.2888C12.9144 22.669 12.4276 22.4473 11.8824 22.4473H10.8444C10.3876 22.4473 10.0206 22.2601 9.69411 21.8586C9.33914 21.4241 9.16689 20.8878 9.16689 20.2196V12.3816H11.1185C11.7101 12.3816 12.2044 12.2003 12.5908 11.8438C12.9848 11.4797 13.1944 11.0018 13.1944 10.4595C13.1944 9.87676 12.9848 9.37641 12.5893 9.01236C12.2044 8.65582 11.7101 8.47604 11.1185 8.47604H9.17139V3.92781C9.17139 3.17726 8.31915 2.73382 7.71405 3.17576L7.70206 3.18625L5.63213 4.7278C5.13038 5.10082 4.83381 5.68957 4.83381 6.31429L4.82932 8.47604H4.07444C3.48132 8.47604 2.98705 8.65582 2.60212 9.01236C2.2082 9.3764 2.00001 9.87526 2.00001 10.4595C2.00001 11.0018 2.2082 11.4812 2.60212 11.8438C2.98705 12.2003 3.48131 12.3816 4.07444 12.3816H4.83532V20.2196C4.83532 21.4391 5.09594 22.5552 5.60968 23.5364C6.1294 24.5282 6.85583 25.3252 7.77248 25.9019C8.69661 26.4847 9.73008 26.678 10.8444 26.678H11.3926C12.0756 26.678 12.6523 26.5836 13.1046 26.2001C13.5809 25.7956 13.834 25.2458 13.834 24.6136C13.834 24.0068 13.6498 23.493 13.2903 23.0885" fill="white"/>
<path d="M13.2903 23.0885H13.2888C12.9144 22.669 12.4276 22.4473 11.8824 22.4473H10.8444C10.3876 22.4473 10.0206 22.2601 9.69411 21.8586C9.33914 21.4241 9.16689 20.8878 9.16689 20.2196V12.3816H11.1185C11.7101 12.3816 12.2044 12.2003 12.5908 11.8438C12.9848 11.4797 13.1944 11.0018 13.1944 10.4595C13.1944 9.87676 12.9848 9.37641 12.5893 9.01236C12.2044 8.65582 11.7101 8.47604 11.1185 8.47604H9.17139V3.92781C9.17139 3.17726 8.31915 2.73382 7.71405 3.17576L7.70206 3.18625L5.63213 4.7278C5.13038 5.10082 4.83381 5.68957 4.83381 6.31429L4.82932 8.47604H4.07444C3.48132 8.47604 2.98705 8.65582 2.60212 9.01236C2.2082 9.3764 2.00001 9.87526 2.00001 10.4595C2.00001 11.0018 2.2082 11.4812 2.60212 11.8438C2.98705 12.2003 3.48131 12.3816 4.07444 12.3816H4.83532V20.2196C4.83532 21.4391 5.09594 22.5552 5.60968 23.5364C6.1294 24.5282 6.85583 25.3252 7.77248 25.9019C8.69661 26.4847 9.73008 26.678 10.8444 26.678H11.3926C12.0756 26.678 12.6523 26.5836 13.1046 26.2001C13.5809 25.7956 13.834 25.2458 13.834 24.6136C13.834 24.0068 13.6498 23.493 13.2903 23.0885" stroke="white" stroke-width="4" stroke-linecap="round" stroke-linejoin="round"/>
<path fill-rule="evenodd" clip-rule="evenodd" d="M36.8063 15.9823L35.5952 14.5421V8.44284L36.8063 15.9823Z" fill="white" stroke="white" stroke-width="4" stroke-linecap="round" stroke-linejoin="round"/>
<path fill-rule="evenodd" clip-rule="evenodd" d="M44.9713 18.4316L46.1853 19.8165V26.4011L44.9713 18.4316Z" fill="white" stroke="white" stroke-width="4" stroke-linecap="round" stroke-linejoin="round"/>
<path fill-rule="evenodd" clip-rule="evenodd" d="M35.5384 14.4789L45.0498 25.8098C45.3702 26.1932 45.8059 26.4208 46.2671 26.4957V19.9092L36.7603 9.03804C36.4339 8.66514 35.9966 8.44499 35.5384 8.3791V14.4789Z" fill="#6AFF99" stroke="white" stroke-opacity="0.01"/>
<path fill-rule="evenodd" clip-rule="evenodd" d="M65.4571 9.29976H65.4556C64.0713 8.50423 62.5222 8.10123 60.8518 8.10123C59.1783 8.10123 57.6367 8.50573 56.2719 9.30126C54.9085 10.0983 53.8149 11.2039 53.0194 12.5852C52.2238 13.9695 51.8193 15.5291 51.8193 17.2221V31.8037C51.8193 32.4494 52.0351 32.9843 52.4576 33.3932C52.877 33.7962 53.3999 34 54.0171 34C54.6584 34 55.1887 33.7932 55.6007 33.3857C56.0067 32.9767 56.2135 32.4449 56.2135 31.8037V24.4492C56.7228 24.8702 57.2831 25.2268 57.8884 25.5189C58.9881 26.0463 60.1896 26.3129 61.46 26.3129C63.0391 26.3129 64.4908 25.9114 65.7777 25.1204C67.0602 24.3309 68.0834 23.2267 68.8145 21.8379C69.5441 20.4596 69.9127 18.9075 69.9127 17.2221C69.9127 15.5321 69.5142 13.9725 68.7306 12.5897C67.9441 11.2039 66.8429 10.0968 65.4572 9.29977M60.8518 12.1283C61.7567 12.1283 62.5522 12.3425 63.2803 12.783C64.0009 13.219 64.5807 13.8317 65.0017 14.6018C65.4257 15.3763 65.6399 16.2587 65.6399 17.2221C65.6399 18.1854 65.4257 19.0618 65.0032 19.8259C64.5762 20.5974 64.0129 21.1877 63.2803 21.6312C62.5522 22.0716 61.7567 22.2859 60.8518 22.2859C59.9439 22.2859 59.1499 22.0716 58.4217 21.6312C57.6891 21.1892 57.1318 20.6004 56.7168 19.8304C56.3033 19.0663 56.0921 18.1884 56.0921 17.2221C56.0921 16.2557 56.3033 15.3718 56.7183 14.5958C57.1333 13.8182 57.6906 13.225 58.4217 12.783C59.1499 12.3425 59.9439 12.1283 60.8518 12.1283Z" fill="#121212"/>
<path d="M65.4556 9.29976L65.2065 9.73327L65.3222 9.79976H65.4556V9.29976ZM56.2719 9.30126L56.0201 8.86929L56.0195 8.86961L56.2719 9.30126ZM53.0194 12.5852L52.5861 12.3357L52.5858 12.3361L53.0194 12.5852ZM52.4576 33.3932L52.1098 33.7525L52.1112 33.7538L52.4576 33.3932ZM55.6007 33.3857L55.9523 33.7413L55.9556 33.738L55.6007 33.3857ZM56.2135 24.4492L56.532 24.0638L55.7135 23.3873V24.4492H56.2135ZM57.8884 25.5189L57.6711 25.9692L57.6722 25.9697L57.8884 25.5189ZM65.7777 25.1204L66.0396 25.5464L66.0399 25.5462L65.7777 25.1204ZM68.8145 21.8379L68.3726 21.604L68.3721 21.605L68.8145 21.8379ZM68.7306 12.5897L69.1657 12.3432L69.1655 12.3429L68.7306 12.5897ZM63.2803 12.783L63.5391 12.3552L63.5391 12.3552L63.2803 12.783ZM65.0017 14.6018L64.563 14.8416L64.5631 14.8419L65.0017 14.6018ZM65.0032 19.8259L65.4407 20.068L65.4408 20.0678L65.0032 19.8259ZM63.2803 21.6312L63.5391 22.059L63.5392 22.0589L63.2803 21.6312ZM58.4217 21.6312L58.6805 21.2033L58.68 21.203L58.4217 21.6312ZM56.7168 19.8304L57.157 19.5932L57.1566 19.5924L56.7168 19.8304ZM56.7183 14.5958L57.1592 14.8316L57.1594 14.8312L56.7183 14.5958ZM58.4217 12.783L58.6804 13.2109L58.6805 13.2108L58.4217 12.783ZM65.4571 8.79976H65.4556V9.79976H65.4571V8.79976ZM65.7048 8.86625C64.241 8.02506 62.6054 7.60123 60.8518 7.60123V8.60123C62.4391 8.60123 63.9016 8.9834 65.2065 9.73327L65.7048 8.86625ZM60.8518 7.60123C59.0951 7.60123 57.4658 8.02663 56.0201 8.86929L56.5237 9.73324C57.8076 8.98484 59.2615 8.60123 60.8518 8.60123V7.60123ZM56.0195 8.86961C54.58 9.71115 53.4244 10.88 52.5861 12.3357L53.4526 12.8348C54.2053 11.5278 55.237 10.4854 56.5242 9.73291L56.0195 8.86961ZM52.5858 12.3361C51.7443 13.8006 51.3193 15.4469 51.3193 17.2221H52.3193C52.3193 15.6114 52.7034 14.1385 53.4529 12.8344L52.5858 12.3361ZM51.3193 17.2221V31.8037H52.3193V17.2221H51.3193ZM51.3193 31.8037C51.3193 32.5711 51.5805 33.2401 52.1098 33.7525L52.8053 33.034C52.4896 32.7284 52.3193 32.3277 52.3193 31.8037H51.3193ZM52.1112 33.7538C52.6297 34.2519 53.2791 34.5 54.0171 34.5V33.5C53.5206 33.5 53.1244 33.3406 52.804 33.0327L52.1112 33.7538ZM54.0171 34.5C54.7756 34.5 55.437 34.251 55.9523 33.7412L55.2491 33.0303C54.9405 33.3355 54.5411 33.5 54.0171 33.5V34.5ZM55.9556 33.738C56.4649 33.2249 56.7135 32.5613 56.7135 31.8037H55.7135C55.7135 32.3285 55.5485 32.7286 55.2459 33.0335L55.9556 33.738ZM56.7135 31.8037V24.4492H55.7135V31.8037H56.7135ZM55.8949 24.8346C56.4365 25.2822 57.031 25.6602 57.6711 25.9692L58.1057 25.0686C57.5353 24.7933 57.0092 24.4582 56.532 24.0638L55.8949 24.8346ZM57.6722 25.9697C58.8423 26.5309 60.1181 26.8129 61.46 26.8129V25.8129C60.261 25.8129 59.1338 25.5616 58.1046 25.0681L57.6722 25.9697ZM61.46 26.8129C63.1273 26.8129 64.6704 26.3879 66.0396 25.5464L65.5159 24.6944C64.3113 25.4349 62.9509 25.8129 61.46 25.8129V26.8129ZM66.0399 25.5462C67.4015 24.7079 68.4857 23.5358 69.257 22.0708L68.3721 21.605C67.6811 22.9176 66.7188 23.9539 65.5156 24.6946L66.0399 25.5462ZM69.2564 22.0718C70.0273 20.6155 70.4127 18.9821 70.4127 17.2221H69.4127C69.4127 18.8329 69.0609 20.3037 68.3726 21.604L69.2564 22.0718ZM70.4127 17.2221C70.4127 15.4512 69.9944 13.8058 69.1657 12.3432L68.2956 12.8362C69.0339 14.1392 69.4127 15.613 69.4127 17.2221H70.4127ZM69.1655 12.3429C68.3348 10.8793 67.1695 9.70779 65.7064 8.86634L65.2079 9.7332C66.5164 10.4858 67.5534 11.5286 68.2958 12.8365L69.1655 12.3429ZM60.8518 12.6283C61.6716 12.6283 62.3766 12.8207 63.0215 13.2108L63.5391 12.3552C62.7278 11.8644 61.8417 11.6283 60.8518 11.6283V12.6283ZM63.0215 13.2108C63.6633 13.5991 64.1824 14.1455 64.563 14.8416L65.4404 14.3619C64.979 13.5179 64.3385 12.8388 63.5391 12.3552L63.0215 13.2108ZM64.5631 14.8419C64.943 15.5359 65.1399 16.3344 65.1399 17.2221H66.1399C66.1399 16.1831 65.9083 15.2167 65.4403 14.3617L64.5631 14.8419ZM65.1399 17.2221C65.1399 18.1097 64.943 18.9014 64.5656 19.5839L65.4408 20.0678C65.9083 19.2222 66.1399 18.261 66.1399 17.2221H65.1399ZM64.5657 19.5838C64.1797 20.2813 63.677 20.8066 63.0214 21.2034L63.5392 22.0589C64.3488 21.5688 64.9727 20.9135 65.4407 20.068L64.5657 19.5838ZM63.0215 21.2034C62.3766 21.5935 61.6716 21.7859 60.8518 21.7859V22.7859C61.8417 22.7859 62.7278 22.5497 63.5391 22.059L63.0215 21.2034ZM60.8518 21.7859C60.029 21.7859 59.3255 21.5935 58.6805 21.2033L58.1629 22.059C58.9742 22.5497 59.8588 22.7859 60.8518 22.7859V21.7859ZM58.68 21.203C58.0259 20.8084 57.5306 20.2863 57.157 19.5932L56.2767 20.0676C56.7331 20.9145 57.3524 21.57 58.1635 22.0593L58.68 21.203ZM57.1566 19.5924C56.7867 18.9089 56.5921 18.1142 56.5921 17.2221H55.5921C55.5921 18.2625 55.82 19.2237 56.2771 20.0683L57.1566 19.5924ZM56.5921 17.2221C56.5921 16.33 56.7866 15.5284 57.1592 14.8316L56.2774 14.36C55.82 15.2153 55.5921 16.1814 55.5921 17.2221H56.5921ZM57.1594 14.8312C57.5335 14.1304 58.0289 13.6047 58.6804 13.2109L58.1631 12.3551C57.3524 12.8452 56.7331 13.5061 56.2772 14.3604L57.1594 14.8312ZM58.6805 13.2108C59.3255 12.8207 60.029 12.6283 60.8518 12.6283V11.6283C59.8588 11.6283 58.9742 11.8644 58.1629 12.3552L58.6805 13.2108Z" fill="white" fill-opacity="0.01"/>
<path fill-rule="evenodd" clip-rule="evenodd" d="M87.8345 12.7287C87.0584 11.3519 85.9708 10.2583 84.6029 9.48223C83.2396 8.70768 81.6815 8.31516 79.9706 8.31516C78.2402 8.31516 76.6672 8.70618 75.2933 9.48073C73.912 10.2583 72.8244 11.3534 72.0588 12.7317C71.2962 14.1026 70.9082 15.6861 70.9082 17.4375C70.9082 19.1664 71.2962 20.7394 72.0588 22.1103C72.8244 23.4916 73.9135 24.5852 75.2933 25.3628C76.6657 26.1358 78.2402 26.5268 79.9706 26.5268C81.701 26.5268 83.2711 26.1343 84.6344 25.3613C86.0007 24.5837 87.0839 23.4901 87.8525 22.1103C88.615 20.7394 89.0001 19.1649 89.0001 17.4375C89.0001 15.6861 88.609 14.1026 87.8345 12.7287M82.4351 21.8571C81.7145 22.284 80.886 22.4998 79.9706 22.4998C79.0552 22.4998 78.2252 22.284 77.5046 21.8571C76.775 21.4256 76.2192 20.8428 75.8057 20.0757C75.3907 19.3102 75.181 18.4218 75.181 17.4375C75.181 16.4487 75.3907 15.5558 75.8072 14.7797C76.2162 14.0127 76.7885 13.4104 77.5046 12.9849C78.2252 12.558 79.0552 12.3422 79.9706 12.3422C80.886 12.3422 81.7145 12.558 82.4351 12.9849C83.1602 13.4149 83.71 14.0007 84.116 14.7737C84.5235 15.5528 84.7303 16.4472 84.7303 17.4375C84.7303 18.4233 84.5235 19.3132 84.1175 20.0802C83.7115 20.8458 83.1617 21.4271 82.4351 21.8571" fill="#121212"/>
<path d="M84.6029 9.48223L84.356 9.91697L84.3562 9.91711L84.6029 9.48223ZM75.2933 9.48073L75.5386 9.91644L75.5389 9.91628L75.2933 9.48073ZM72.0588 12.7317L72.4957 12.9748L72.4959 12.9745L72.0588 12.7317ZM72.0588 22.1103L72.4961 21.8679L72.4957 21.8672L72.0588 22.1103ZM75.2933 25.3628L75.0479 25.7984L75.0479 25.7984L75.2933 25.3628ZM84.6344 25.3613L84.881 25.7962L84.8817 25.7958L84.6344 25.3613ZM87.8525 22.1103L88.2893 22.3536L88.2894 22.3533L87.8525 22.1103ZM77.5046 21.8571L77.7595 21.4269L77.7591 21.4267L77.5046 21.8571ZM75.8057 20.0757L76.2458 19.8385L76.2453 19.8375L75.8057 20.0757ZM75.8072 14.7797L76.2478 15.0162L76.2484 15.015L75.8072 14.7797ZM77.5046 12.9849L77.2498 12.5548L77.2492 12.5551L77.5046 12.9849ZM82.4351 12.9849L82.6901 12.5549L82.69 12.5548L82.4351 12.9849ZM84.116 14.7737L84.5591 14.542L84.5587 14.5413L84.116 14.7737ZM84.1175 20.0802L84.5593 20.3145L84.5595 20.3141L84.1175 20.0802ZM88.2701 12.4832C87.4498 11.0279 86.2971 9.86855 84.8497 9.04735L84.3562 9.91711C85.6444 10.648 86.6671 11.6759 87.3989 12.9743L88.2701 12.4832ZM84.8499 9.04749C83.4046 8.22633 81.76 7.81516 79.9706 7.81516V8.81516C81.6031 8.81516 83.0747 9.18903 84.356 9.91697L84.8499 9.04749ZM79.9706 7.81516C78.1631 7.81516 76.5039 8.22421 75.0478 9.04518L75.5389 9.91628C76.8304 9.18814 78.3174 8.81516 79.9706 8.81516V7.81516ZM75.0481 9.04502C73.5863 9.86788 72.4322 11.0298 71.6217 12.489L72.4959 12.9745C73.2166 11.6771 74.2378 10.6487 75.5386 9.91644L75.0481 9.04502ZM71.6219 12.4887C70.8134 13.942 70.4082 15.6109 70.4082 17.4375H71.4082C71.4082 15.7614 71.7791 14.2632 72.4957 12.9748L71.6219 12.4887ZM70.4082 17.4375C70.4082 19.2428 70.8139 20.9009 71.6219 22.3533L72.4957 21.8672C71.7786 20.5779 71.4082 19.09 71.4082 17.4375H70.4082ZM71.6215 22.3526C72.4322 23.8154 73.588 24.9757 75.0479 25.7984L75.5388 24.9272C74.239 24.1947 73.2165 23.1677 72.4961 21.8679L71.6215 22.3526ZM75.0479 25.7984C76.5026 26.6178 78.1632 27.0268 79.9706 27.0268V26.0268C78.3172 26.0268 76.8287 25.6538 75.5387 24.9271L75.0479 25.7984ZM79.9706 27.0268C81.7783 27.0268 83.4349 26.6162 84.881 25.7962L84.3878 24.9263C83.1072 25.6524 81.6237 26.0268 79.9706 26.0268V27.0268ZM84.8817 25.7958C86.3278 24.9729 87.4764 23.813 88.2893 22.3536L87.4157 21.867C86.6914 23.1671 85.6737 24.1945 84.3871 24.9267L84.8817 25.7958ZM88.2894 22.3533C89.0976 20.9004 89.5001 19.2406 89.5001 17.4375H88.5001C88.5001 19.0892 88.1324 20.5785 87.4155 21.8672L88.2894 22.3533ZM89.5001 17.4375C89.5001 15.6101 89.0915 13.9402 88.27 12.4832L87.3989 12.9743C88.1266 14.2649 88.5001 15.7621 88.5001 17.4375H89.5001ZM82.1802 21.4269C81.544 21.8039 80.8051 21.9998 79.9706 21.9998V22.9998C80.9669 22.9998 81.885 22.7642 82.69 22.2872L82.1802 21.4269ZM79.9706 21.9998C79.136 21.9998 78.3956 21.8038 77.7595 21.4269L77.2498 22.2872C78.0549 22.7643 78.9745 22.9998 79.9706 22.9998V21.9998ZM77.7591 21.4267C77.1101 21.0429 76.6175 20.5279 76.2458 19.8385L75.3656 20.313C75.821 21.1578 76.44 21.8083 77.2501 22.2874L77.7591 21.4267ZM76.2453 19.8375C75.875 19.1544 75.681 18.3499 75.681 17.4375H74.681C74.681 18.4936 74.9064 19.4659 75.3661 20.314L76.2453 19.8375ZM75.681 17.4375C75.681 16.5205 75.875 15.7107 76.2478 15.0162L75.3666 14.5433C74.9064 15.4009 74.681 16.3768 74.681 17.4375H75.681ZM76.2484 15.015C76.6158 14.326 77.1249 13.7921 77.76 13.4148L77.2492 12.5551C76.4521 13.0287 75.8166 13.6994 75.366 14.5445L76.2484 15.015ZM77.7595 13.4151C78.3956 13.0382 79.136 12.8422 79.9706 12.8422V11.8422C78.9745 11.8422 78.0549 12.0777 77.2498 12.5548L77.7595 13.4151ZM79.9706 12.8422C80.8051 12.8422 81.544 13.0381 82.1802 13.4151L82.69 12.5548C81.885 12.0778 80.9669 11.8422 79.9706 11.8422V12.8422ZM82.1801 13.415C82.8224 13.7959 83.3087 14.3118 83.6734 15.0062L84.5587 14.5413C84.1114 13.6896 83.498 13.0339 82.6901 12.5549L82.1801 13.415ZM83.673 15.0055C84.0387 15.7046 84.2303 16.5179 84.2303 17.4375H85.2303C85.2303 16.3765 85.0084 15.4009 84.5591 14.542L83.673 15.0055ZM84.2303 17.4375C84.2303 18.3527 84.0387 19.1604 83.6756 19.8464L84.5595 20.3141C85.0084 19.4659 85.2303 18.4939 85.2303 17.4375H84.2303ZM83.6758 19.846C83.3116 20.5327 82.8255 21.0451 82.1805 21.4268L82.6897 22.2874C83.498 21.8091 84.1115 21.1589 84.5593 20.3145L83.6758 19.846Z" fill="white" fill-opacity="0.01"/>
<path fill-rule="evenodd" clip-rule="evenodd" d="M26.4801 9.47642C25.2456 8.72734 23.7669 8.3468 22.0905 8.3468C20.3991 8.3468 18.8589 8.73932 17.5166 9.51537C16.1667 10.2944 15.0986 11.3926 14.3435 12.7844C13.5929 14.1657 13.2139 15.7417 13.2139 17.4676C13.2139 19.2025 13.6169 20.7786 14.4139 22.1509C15.2124 23.5307 16.336 24.6229 17.7578 25.3974C19.1676 26.169 20.7796 26.5585 22.5489 26.5585C23.5497 26.5585 24.6104 26.3727 25.6981 26.0072C26.7887 25.6401 27.7221 25.1517 28.4547 24.5704C28.9431 24.2049 29.1993 23.7105 29.1993 23.1427C29.1993 22.7427 29.0659 22.1554 28.4292 21.6206C28.0861 21.3149 27.6367 21.1591 27.0944 21.1591C26.5625 21.1591 26.0906 21.3179 25.6996 21.625C25.328 21.9067 24.8411 22.1509 24.2509 22.3532C23.6591 22.5524 23.0868 22.6528 22.5489 22.6528C21.1422 22.6528 19.9931 22.2723 19.0342 21.4872C18.2762 20.867 17.7683 20.1059 17.4911 19.177H28.2839C28.8607 19.177 29.3491 18.9883 29.7356 18.6167C30.1237 18.2422 30.3274 17.7508 30.3274 17.1935C30.3274 15.4961 29.9993 13.9634 29.3476 12.6391C28.6854 11.2937 27.7206 10.2285 26.4801 9.47643M26.1086 15.4541H17.5346C17.8042 14.5837 18.2552 13.878 18.8994 13.3117C19.7114 12.5986 20.7556 12.251 22.0905 12.251C23.2696 12.251 24.1909 12.5911 24.9085 13.2893C25.4913 13.8586 25.8868 14.5702 26.1086 15.4541" fill="#121212"/>
<path d="M17.5166 9.51537L17.7665 9.94842L17.7668 9.94824L17.5166 9.51537ZM14.3435 12.7844L14.7828 13.0231L14.783 13.0228L14.3435 12.7844ZM14.4139 22.1509L14.8467 21.9004L14.8463 21.8998L14.4139 22.1509ZM17.7578 25.3974L17.9978 24.9588L17.997 24.9583L17.7578 25.3974ZM25.6981 26.0072L25.8574 26.4811L25.8576 26.4811L25.6981 26.0072ZM28.4547 24.5704L28.155 24.17L28.1439 24.1788L28.4547 24.5704ZM28.4292 21.6206L28.0966 21.9939L28.1021 21.9987L28.1076 22.0034L28.4292 21.6206ZM25.6996 21.625L26.0017 22.0236L26.0084 22.0183L25.6996 21.625ZM24.2509 22.3532L24.4104 22.827L24.4129 22.8262L24.2509 22.3532ZM19.0342 21.4872L19.351 21.1003L19.3509 21.1002L19.0342 21.4872ZM17.4911 19.177V18.677H16.8202L17.012 19.32L17.4911 19.177ZM29.7356 18.6167L30.0821 18.9772L30.0829 18.9765L29.7356 18.6167ZM29.3476 12.6391L29.7962 12.4183L29.7962 12.4182L29.3476 12.6391ZM17.5346 15.4541L17.057 15.3061L16.8562 15.9541H17.5346V15.4541ZM18.8994 13.3117L18.5695 12.936L18.5693 12.9362L18.8994 13.3117ZM24.9085 13.2893L25.2579 12.9316L25.2572 12.9309L24.9085 13.2893ZM26.7395 9.04896C25.4149 8.24523 23.8435 7.8468 22.0905 7.8468V8.8468C23.6904 8.8468 25.0763 9.20945 26.2207 9.90388L26.7395 9.04896ZM22.0905 7.8468C20.3197 7.8468 18.6918 8.25839 17.2663 9.0825L17.7668 9.94824C19.0261 9.22025 20.4784 8.8468 22.0905 8.8468V7.8468ZM17.2667 9.08232C15.836 9.908 14.7026 11.0739 13.904 12.5459L14.783 13.0228C15.4945 11.7113 16.4975 10.6808 17.7665 9.94842L17.2667 9.08232ZM13.9042 12.5456C13.1098 14.0075 12.7139 15.6671 12.7139 17.4676H13.7139C13.7139 15.8164 14.076 14.3238 14.7828 13.0231L13.9042 12.5456ZM12.7139 17.4676C12.7139 19.282 13.136 20.9462 13.9815 22.402L14.8463 21.8998C14.0977 20.6109 13.7139 19.123 13.7139 17.4676H12.7139ZM13.9811 22.4013C14.8262 23.8616 16.0173 25.0186 17.5186 25.8365L17.997 24.9583C16.6548 24.2271 15.5986 23.1998 14.8467 21.9004L13.9811 22.4013ZM17.5178 25.836C19.0086 26.652 20.7047 27.0585 22.5489 27.0585V26.0585C20.8545 26.0585 19.3265 25.686 17.9978 24.9588L17.5178 25.836ZM22.5489 27.0585C23.6112 27.0585 24.7258 26.8614 25.8574 26.4811L25.5388 25.5332C24.495 25.884 23.4882 26.0585 22.5489 26.0585V27.0585ZM25.8576 26.4811C26.9917 26.0994 27.9791 25.5861 28.7655 24.9621L28.1439 24.1788C27.4651 24.7174 26.5858 25.1809 25.5386 25.5333L25.8576 26.4811ZM28.7543 24.9707C29.3592 24.518 29.6993 23.8797 29.6993 23.1427H28.6993C28.6993 23.5413 28.527 23.8918 28.1551 24.1701L28.7543 24.9707ZM29.6993 23.1427C29.6993 22.6189 29.5177 21.8819 28.7508 21.2377L28.1076 22.0034C28.6142 22.4289 28.6993 22.8665 28.6993 23.1427H29.6993ZM28.7618 21.2472C28.3114 20.846 27.7365 20.6591 27.0944 20.6591V21.6591C27.5369 21.6591 27.8609 21.7839 28.0966 21.9939L28.7618 21.2472ZM27.0944 20.6591C26.4576 20.6591 25.8753 20.8513 25.3907 21.2318L26.0084 22.0183C26.3059 21.7846 26.6674 21.6591 27.0944 21.6591V20.6591ZM25.3975 21.2266C25.0803 21.4671 24.6451 21.6895 24.0888 21.8801L24.4129 22.8262C25.0372 22.6123 25.5758 22.3463 26.0016 22.0235L25.3975 21.2266ZM24.0913 21.8793C23.5432 22.0638 23.0249 22.1528 22.5489 22.1528V23.1528C23.1487 23.1528 23.775 23.041 24.4104 22.827L24.0913 21.8793ZM22.5489 22.1528C21.2409 22.1528 20.2083 21.8023 19.351 21.1003L18.7175 21.8741C19.7778 22.7422 21.0434 23.1528 22.5489 23.1528V22.1528ZM19.3509 21.1002C18.6694 20.5427 18.2186 19.8663 17.9703 19.0341L17.012 19.32C17.318 20.3455 17.8829 21.1912 18.7176 21.8742L19.3509 21.1002ZM17.4911 19.677H28.2839V18.677H17.4911V19.677ZM28.2839 19.677C28.9794 19.677 29.5952 19.4453 30.0821 18.9772L29.3891 18.2563C29.1031 18.5313 28.742 18.677 28.2839 18.677V19.677ZM30.0829 18.9765C30.5725 18.5039 30.8274 17.8808 30.8274 17.1935H29.8274C29.8274 17.6208 29.6748 17.9805 29.3884 18.257L30.0829 18.9765ZM30.8274 17.1935C30.8274 15.4316 30.4867 13.8214 29.7962 12.4183L28.899 12.8598C29.5119 14.1055 29.8274 15.5605 29.8274 17.1935H30.8274ZM29.7962 12.4182C29.0935 10.9906 28.0645 9.85225 26.7393 9.04887L26.2209 9.90399C27.3768 10.6048 28.2773 11.5968 28.899 12.8599L29.7962 12.4182ZM26.1086 14.9541H17.5346V15.9541H26.1086V14.9541ZM18.0122 15.6021C18.2561 14.8146 18.6583 14.1894 19.2295 13.6873L18.5693 12.9362C17.8521 13.5667 17.3524 14.3527 17.057 15.3061L18.0122 15.6021ZM19.2293 13.6874C19.9302 13.0719 20.8476 12.751 22.0905 12.751V11.751C20.6637 11.751 19.4926 12.1253 18.5695 12.936L19.2293 13.6874ZM22.0905 12.751C23.1638 12.751 23.9518 13.056 24.5599 13.6476L25.2572 12.9309C24.4301 12.1262 23.3753 11.751 22.0905 11.751V12.751ZM24.5592 13.6469C25.0685 14.1445 25.4218 14.7712 25.6236 15.5758L26.5936 15.3325C26.3519 14.3692 25.9141 13.5726 25.2579 12.9316L24.5592 13.6469Z" fill="white" fill-opacity="0.01"/>
<path fill-rule="evenodd" clip-rule="evenodd" d="M35.6493 20.1869V14.478V8.37667C35.1373 8.30177 34.6028 8.41861 34.1597 8.74818L32.0636 10.3091C31.5576 10.6881 31.2566 11.2828 31.2566 11.9165L31.2372 20.1869H31.2252V24.3184C31.2252 24.9686 31.4393 25.5078 31.866 25.9198C32.2867 26.3258 32.8137 26.531 33.435 26.531C34.0803 26.531 34.6178 26.3228 35.031 25.9108C35.4398 25.5004 35.6494 24.9641 35.6494 24.3184L35.6493 20.1869Z" fill="#121212" stroke="white" stroke-opacity="0.01"/>
<path fill-rule="evenodd" clip-rule="evenodd" d="M46.1452 14.6872V20.3961V26.4974C46.6556 26.5723 47.1899 26.4555 47.6329 26.1259L49.7252 24.565C50.2326 24.1875 50.532 23.5913 50.5335 22.9592L50.5529 14.6872H50.5664V10.5572C50.5664 9.90556 50.3509 9.36778 49.9228 8.95432C49.5037 8.54987 48.9784 8.34314 48.3558 8.34314C47.7107 8.34314 47.1749 8.55136 46.7618 8.96331C46.3532 9.37527 46.1452 9.91155 46.1452 10.5572L46.1452 14.6872Z" fill="#121212" stroke="white" stroke-opacity="0.01"/>
<path fill-rule="evenodd" clip-rule="evenodd" d="M13.2903 23.0885H13.2888C12.9144 22.669 12.4276 22.4473 11.8824 22.4473H10.8444C10.3876 22.4473 10.0206 22.2601 9.69411 21.8586C9.33914 21.4241 9.16689 20.8878 9.16689 20.2196V12.3816H11.1185C11.7101 12.3816 12.2044 12.2003 12.5908 11.8438C12.9848 11.4797 13.1944 11.0018 13.1944 10.4595C13.1944 9.87676 12.9848 9.37641 12.5893 9.01236C12.2044 8.65582 11.7101 8.47604 11.1185 8.47604H9.17139V3.92781C9.17139 3.17726 8.31915 2.73382 7.71405 3.17576L7.70206 3.18625L5.63213 4.7278C5.13038 5.10082 4.83381 5.68957 4.83381 6.31429L4.82932 8.47604H4.07444C3.48132 8.47604 2.98705 8.65582 2.60212 9.01236C2.2082 9.3764 2.00001 9.87526 2.00001 10.4595C2.00001 11.0018 2.2082 11.4812 2.60212 11.8438C2.98705 12.2003 3.48131 12.3816 4.07444 12.3816H4.83532V20.2196C4.83532 21.4391 5.09594 22.5552 5.60968 23.5364C6.1294 24.5282 6.85583 25.3252 7.77248 25.9019C8.69661 26.4847 9.73008 26.678 10.8444 26.678H11.3926C12.0756 26.678 12.6523 26.5836 13.1046 26.2001C13.5809 25.7956 13.834 25.2458 13.834 24.6136C13.834 24.0068 13.6498 23.493 13.2903 23.0885" fill="#121212"/>
<path d="M13.2903 23.0885H13.2888C12.9144 22.669 12.4276 22.4473 11.8824 22.4473H10.8444C10.3876 22.4473 10.0206 22.2601 9.69411 21.8586C9.33914 21.4241 9.16689 20.8878 9.16689 20.2196V12.3816H11.1185C11.7101 12.3816 12.2044 12.2003 12.5908 11.8438C12.9848 11.4797 13.1944 11.0018 13.1944 10.4595C13.1944 9.87676 12.9848 9.37641 12.5893 9.01236C12.2044 8.65582 11.7101 8.47604 11.1185 8.47604H9.17139V3.92781C9.17139 3.17726 8.31915 2.73382 7.71405 3.17576L7.70206 3.18625L5.63213 4.7278C5.13038 5.10082 4.83381 5.68957 4.83381 6.31429L4.82932 8.47604H4.07444C3.48132 8.47604 2.98705 8.65582 2.60212 9.01236C2.2082 9.3764 2.00001 9.87526 2.00001 10.4595C2.00001 11.0018 2.2082 11.4812 2.60212 11.8438C2.98705 12.2003 3.48131 12.3816 4.07444 12.3816H4.83532V20.2196C4.83532 21.4391 5.09594 22.5552 5.60968 23.5364C6.1294 24.5282 6.85583 25.3252 7.77248 25.9019C8.69661 26.4847 9.73008 26.678 10.8444 26.678H11.3926C12.0756 26.678 12.6523 26.5836 13.1046 26.2001C13.5809 25.7956 13.834 25.2458 13.834 24.6136C13.834 24.0068 13.6498 23.493 13.2903 23.0885" stroke="white" stroke-opacity="0.01"/>
<path fill-rule="evenodd" clip-rule="evenodd" d="M36.8063 15.9823L35.5952 14.5421V8.44284L36.8063 15.9823Z" fill="#44C168" stroke="white" stroke-opacity="0.01"/>
<path fill-rule="evenodd" clip-rule="evenodd" d="M44.9713 18.4316L46.1853 19.8165V26.4011L44.9713 18.4316Z" fill="#44C168" stroke="white" stroke-opacity="0.01"/>
</svg>
